<svg width="406" height="307" viewBox="0 0 406 307" fill="none" xmlns="http://www.w3.org/2000/svg">
<path d="M353.337 257.551H54.9775C54.8989 257.573 54.8162 257.577 54.7359 257.562C54.6556 257.547 54.5799 257.514 54.5146 257.465C54.4494 257.416 54.3965 257.352 54.3601 257.279C54.3237 257.206 54.3047 257.125 54.3047 257.043C54.3047 256.962 54.3237 256.881 54.3601 256.808C54.3965 256.735 54.4494 256.671 54.5146 256.622C54.5799 256.573 54.6556 256.539 54.7359 256.525C54.8162 256.51 54.8989 256.513 54.9775 256.536H353.387C353.498 256.567 353.595 256.634 353.664 256.726C353.733 256.817 353.77 256.929 353.77 257.043C353.77 257.158 353.733 257.27 353.664 257.361C353.595 257.453 353.498 257.519 353.387 257.551H353.337Z" fill="#CBD5E1"/>
<path d="M72.5075 217.992V19.0075H335.492V217.992H72.5075Z" fill="white" stroke="#475569" stroke-width="1.015"/>
<g clip-path="url(#clip0_4370_30523)">
<rect width="64" height="4" transform="translate(171 40.5)" fill="#94A3B8"/>
<rect width="26" height="4" transform="translate(190 49.5)" fill="#94A3B8"/>
<rect width="40" height="2" transform="translate(183 198.5)" fill="#94A3B8"/>
<rect width="100" height="14" transform="translate(153 173.5)" fill="#0F172A"/>
<rect x="153.5" y="102" width="29.6667" height="19" stroke="#475569"/>
<circle cx="158.5" cy="107" r="2" fill="#0F172A" stroke="#0F172A"/>
<rect x="188.164" y="102" width="29.6667" height="19" stroke="#475569"/>
<circle cx="193.5" cy="107" r="2" stroke="#475569"/>
<rect x="222.836" y="102" width="29.6667" height="19" stroke="#475569"/>
<circle cx="227.5" cy="107" r="2" stroke="#475569"/>
<rect x="153.5" y="84" width="99" height="11" stroke="#475569"/>
<rect x="153.5" y="128" width="99" height="37" stroke="#475569"/>
<path d="M246 162.5L250 158.5" stroke="#475569"/>
<path d="M249 162.5L250 161.5" stroke="#475569"/>
<rect x="153.5" y="66" width="47" height="11" stroke="#475569"/>
<rect x="205.5" y="66" width="47" height="11" stroke="#475569"/>
</g>
<rect width="26" height="8" transform="translate(300 26.5)" fill="#CBD5E1"/>
<path d="M284.483 96.5578C283.855 96.0965 283.359 95.4791 283.044 94.7669C282.729 94.0547 282.606 93.2725 282.686 92.4978C281.894 92.671 281.066 92.5779 280.332 92.2328C279.598 91.8878 278.998 91.3102 278.626 90.5896C277.919 89.1081 277.723 87.4342 278.068 85.8293C276.832 85.2308 275.8 84.2824 275.099 83.1019C274.398 81.9214 274.059 80.5609 274.125 79.1896C274.191 77.8183 274.659 76.4966 275.47 75.3888C276.281 74.2811 277.4 73.4362 278.687 72.9591C278.468 72.8601 278.276 72.7097 278.128 72.5206C277.979 72.3315 277.879 72.1093 277.834 71.873C276.921 68.828 278.728 65.4176 281.509 63.9053C282.934 63.2089 284.491 62.8243 286.077 62.7771C287.663 62.7298 289.24 63.021 290.705 63.6312C290.622 63.2275 290.656 62.8085 290.804 62.4237C290.951 62.0389 291.206 61.7042 291.537 61.4591C292.207 60.9804 292.978 60.661 293.79 60.5253C297.871 59.6415 302.12 59.948 306.031 61.4084C307.889 62.1087 309.929 63.5196 309.777 65.4684C310.99 65.2614 312.238 65.4271 313.355 65.9436C314.473 66.4601 315.408 67.3032 316.036 68.3616C316.665 69.4201 316.958 70.6443 316.877 71.8727C316.796 73.1011 316.345 74.2762 315.582 75.2428C316.498 76.1201 317.16 77.2279 317.499 78.4497C317.839 79.6715 317.842 80.9622 317.51 82.1859C317.177 83.4096 316.521 84.5211 315.61 85.4034C314.7 86.2857 313.568 86.9062 312.334 87.1995C312.466 86.7428 313.167 87.1488 313.349 87.5852C314.557 90.6302 312.334 94.1929 309.502 95.8981C306.671 97.6033 302.55 97.9281 300.185 95.553C300.197 96.34 299.943 97.1081 299.464 97.7327C298.985 98.3573 298.309 98.8017 297.546 98.9938C296.006 99.3404 294.404 99.295 292.887 98.8619C291.364 98.5472 290.004 97.7251 288.533 97.3901C287.061 97.0552 285.812 97.5119 284.483 96.5578Z" fill="white"/>
<path d="M295.735 99.7028C294.726 99.6764 293.723 99.5471 292.741 99.3171C291.935 99.1241 291.147 98.8626 290.386 98.5356C289.728 98.2535 289.049 98.0227 288.356 97.8454C287.904 97.7574 287.446 97.7098 286.986 97.7033C286 97.7568 285.023 97.4974 284.194 96.9623C283.583 96.5131 283.083 95.9303 282.731 95.2584C282.379 94.5865 282.186 93.8432 282.164 93.085C281.351 93.1228 280.544 92.928 279.838 92.5235C279.131 92.1191 278.555 91.5216 278.176 90.8013C277.441 89.3439 277.203 87.6869 277.495 86.0815C276.296 85.4245 275.299 84.4525 274.612 83.2705C273.924 82.0885 273.573 80.7412 273.595 79.3741C273.617 78.0069 274.011 76.6716 274.736 75.5122C275.461 74.3529 276.489 73.4134 277.709 72.7952C277.542 72.5458 277.415 72.2718 277.333 71.9832C276.399 68.9382 278.115 65.1421 281.251 63.4267C282.618 62.7412 284.109 62.3384 285.635 62.2425C287.161 62.1465 288.69 62.3595 290.132 62.8685C290.255 62.148 290.634 61.4959 291.198 61.0313C291.928 60.5015 292.773 60.1535 293.664 60.0163C297.839 59.1099 302.186 59.4199 306.19 60.9095C308.595 61.8129 310.067 63.2846 310.25 64.9188C311.485 64.8311 312.72 65.0919 313.815 65.6716C314.91 66.2513 315.82 67.1265 316.441 68.1977C317.063 69.269 317.372 70.4933 317.332 71.7313C317.293 72.9693 316.907 74.1713 316.218 75.2007C317.038 76.0842 317.635 77.1514 317.959 78.3129C318.283 79.4745 318.324 80.6967 318.078 81.8773C317.833 83.0578 317.308 84.1625 316.548 85.0988C315.788 86.035 314.815 86.7757 313.711 87.2589C313.739 87.3076 313.762 87.3585 313.782 87.4112C315.122 90.8317 312.696 94.5669 309.722 96.333C307.042 97.9367 303.216 98.4442 300.587 96.5868C300.379 97.2772 300.002 97.9046 299.49 98.4118C298.977 98.9189 298.346 99.2895 297.653 99.4897C297.028 99.6563 296.382 99.7281 295.735 99.7028ZM282.682 91.9178C282.797 91.9139 282.91 91.9538 282.997 92.0294C283.062 92.0828 283.113 92.1516 283.145 92.2296C283.176 92.3076 283.188 92.3923 283.179 92.476C283.108 93.1664 283.217 93.8635 283.496 94.4988C283.776 95.1341 284.216 95.6858 284.773 96.0996C285.448 96.5338 286.245 96.7401 287.047 96.6883C287.572 96.6938 288.096 96.7516 288.61 96.8608C289.345 97.0462 290.065 97.2906 290.762 97.5916C291.466 97.8986 292.196 98.1432 292.944 98.3224C294.378 98.7327 295.891 98.7816 297.349 98.4645C297.987 98.3107 298.556 97.9509 298.969 97.4409C299.382 96.9308 299.615 96.2988 299.633 95.6428C299.622 95.5378 299.643 95.432 299.694 95.3395C299.744 95.247 299.822 95.1722 299.917 95.1252C300.012 95.08 300.119 95.0655 300.222 95.0837C300.326 95.1019 300.421 95.1518 300.495 95.2267C302.739 97.4698 306.585 97.0537 309.204 95.4906C311.823 93.9275 313.924 90.5983 312.828 87.7969C312.801 87.7393 312.763 87.6876 312.716 87.6446L312.422 87.7258C312.335 87.747 312.245 87.745 312.159 87.72C312.073 87.6951 311.996 87.6481 311.934 87.5837C311.874 87.518 311.83 87.4378 311.809 87.3508C311.788 87.2638 311.789 87.1728 311.813 87.0864C311.856 86.9285 311.947 86.7884 312.075 86.6863C312.203 86.5841 312.36 86.5252 312.523 86.518C312.614 86.5032 312.706 86.5032 312.797 86.518C313.798 86.1537 314.7 85.5586 315.428 84.7809C316.156 84.0032 316.691 83.0648 316.989 82.0418C317.28 80.9042 317.267 79.7103 316.952 78.5793C316.636 77.4482 316.03 76.4197 315.193 75.5966C315.105 75.5075 315.052 75.3903 315.043 75.2658C315.033 75.1413 315.068 75.0176 315.142 74.9165C315.826 74.0278 316.228 72.954 316.296 71.8342C316.363 70.7145 316.093 69.6002 315.52 68.6358C314.947 67.6713 314.098 66.9011 313.082 66.4248C312.066 65.9485 310.931 65.788 309.823 65.9642C309.748 65.9748 309.671 65.9685 309.598 65.946C309.525 65.9234 309.459 65.8851 309.402 65.8337C309.346 65.7823 309.302 65.7192 309.273 65.6487C309.244 65.5783 309.231 65.5023 309.235 65.4263C309.356 63.782 307.55 62.4929 305.814 61.8433C301.996 60.4198 297.85 60.1204 293.867 60.9806C293.136 61.1007 292.442 61.3853 291.837 61.8129C291.588 61.9986 291.395 62.2493 291.278 62.5375C291.162 62.8257 291.127 63.1403 291.178 63.447C291.204 63.5364 291.205 63.6314 291.179 63.7211C291.154 63.8109 291.104 63.8917 291.036 63.9545C290.967 64.018 290.883 64.0619 290.792 64.0815C290.701 64.1012 290.606 64.0959 290.518 64.0662C289.122 63.479 287.617 63.1962 286.103 63.2364C284.589 63.2767 283.101 63.6391 281.738 64.2996C279.008 65.7917 277.506 69.0397 278.307 71.6787C278.379 71.9223 278.551 72.3486 278.815 72.4298C278.917 72.4595 279.007 72.5205 279.073 72.6043C279.139 72.6881 279.176 72.7904 279.18 72.8967C279.182 73.0038 279.15 73.1087 279.09 73.1975C279.031 73.2864 278.945 73.3549 278.845 73.394C277.652 73.8373 276.615 74.6216 275.864 75.6493C275.112 76.677 274.679 77.9028 274.619 79.1745C274.558 80.4462 274.873 81.7076 275.523 82.802C276.173 83.8965 277.131 84.7757 278.277 85.3304C278.377 85.3762 278.458 85.4542 278.507 85.5518C278.557 85.6494 278.573 85.7609 278.551 85.8684C278.218 87.362 278.397 88.9242 279.059 90.3039C279.376 90.925 279.888 91.4245 280.518 91.7254C281.147 92.0262 281.857 92.1116 282.54 91.9685C282.586 91.957 282.635 91.9536 282.682 91.9584V91.9178Z" fill="#0F172A"/>
<path d="M278.319 108.492C278.319 108.492 260.982 139.592 258.658 145.032C256.334 150.473 266.626 163.109 270.605 160.044C274.583 156.979 278.319 108.492 278.319 108.492Z" fill="#D54407"/>
<path d="M311.545 270.689C311.545 270.689 312.225 275.257 311.2 277.013C309.806 279.507 308.988 282.281 308.805 285.133C309.613 286.067 310.61 286.822 311.729 287.346C312.848 287.871 314.065 288.154 315.301 288.178C319.411 288.178 323.512 285.011 323.969 283.488C324.426 281.966 320.66 265.797 320.66 265.797L311.545 270.689Z" fill="white"/>
<path d="M315.301 288.615C313.994 288.595 312.706 288.297 311.522 287.74C310.339 287.184 309.288 286.382 308.44 285.387C308.402 285.341 308.375 285.287 308.359 285.229C308.343 285.172 308.34 285.112 308.348 285.052C308.532 282.145 309.371 279.317 310.804 276.78C311.576 275.461 311.271 271.979 311.089 270.761C311.071 270.667 311.085 270.57 311.127 270.484C311.169 270.398 311.237 270.328 311.322 270.284L320.457 265.361C320.522 265.329 320.593 265.312 320.665 265.312C320.737 265.312 320.809 265.329 320.873 265.361C320.937 265.393 320.993 265.437 321.038 265.491C321.084 265.545 321.118 265.608 321.137 265.676C321.766 268.406 324.903 282.048 324.436 283.611C323.969 285.174 319.625 288.615 315.301 288.615ZM309.292 284.951C310.056 285.79 310.982 286.465 312.015 286.935C313.049 287.404 314.166 287.658 315.301 287.681C319.229 287.681 323.147 284.636 323.522 283.327C323.786 282.434 322.112 274.09 320.345 266.458L312.043 270.944C312.185 272.05 312.54 275.633 311.596 277.247C310.27 279.614 309.483 282.245 309.292 284.951Z" fill="#0F172A"/>
<path d="M283.281 159.844L303.043 165.467L307.621 106.739C307.621 106.739 291.259 102.75 287.321 104.628C283.383 106.505 283.281 159.844 283.281 159.844Z" fill="#0F172A"/>
<path d="M303.044 165.973H302.902L283.18 160.33C283.073 160.301 282.978 160.238 282.91 160.15C282.842 160.062 282.805 159.954 282.805 159.843C282.805 150.88 283.089 106.048 287.118 104.17C291.148 102.292 307.094 106.078 307.774 106.2C307.891 106.231 307.993 106.301 308.064 106.399C308.134 106.498 308.168 106.617 308.159 106.738L303.582 165.466C303.575 165.54 303.553 165.612 303.516 165.677C303.479 165.742 303.429 165.798 303.369 165.842C303.279 165.921 303.164 165.968 303.044 165.973ZM283.759 159.457L302.557 164.806L307.053 107.124C302.242 105.987 290.509 103.652 287.494 105.094C285.21 106.21 283.84 133.859 283.789 159.457H283.759Z" fill="#0F172A"/>
<path d="M289.873 260.125V273.868L283.488 275.746L283.64 272.934L280.758 275.908C280.758 275.908 263.604 279.075 263.696 276.72C263.787 274.365 265.523 273.086 267.685 271.919C270.009 270.66 276.119 267.118 276.119 267.118L277.033 257.039" fill="white"/>
<path d="M266.871 278.039C265.737 278.164 264.592 277.959 263.572 277.45C263.461 277.362 263.372 277.249 263.312 277.12C263.252 276.992 263.223 276.851 263.227 276.709C263.328 274.101 265.328 272.649 267.459 271.512C269.591 270.376 274.564 267.452 275.681 266.833L276.564 256.988C276.579 256.867 276.64 256.756 276.735 256.678C276.829 256.601 276.95 256.563 277.072 256.572C277.133 256.577 277.192 256.594 277.246 256.622C277.3 256.651 277.348 256.69 277.387 256.737C277.426 256.784 277.455 256.839 277.472 256.898C277.489 256.957 277.495 257.018 277.488 257.079L276.584 267.178C276.576 267.252 276.55 267.322 276.509 267.383C276.469 267.445 276.415 267.496 276.351 267.534C276.29 267.534 270.261 271.096 267.906 272.345C265.551 273.593 264.232 274.74 264.161 276.76C264.648 277.612 272.128 277.034 280.523 275.491L283.304 272.629C283.372 272.562 283.458 272.517 283.552 272.499C283.646 272.481 283.743 272.491 283.831 272.527C283.917 272.566 283.988 272.629 284.037 272.709C284.086 272.788 284.11 272.881 284.105 272.974L283.984 275.136L289.414 273.542V260.144C289.413 260.084 289.423 260.023 289.446 259.966C289.468 259.91 289.502 259.858 289.544 259.815C289.587 259.771 289.637 259.737 289.693 259.713C289.75 259.69 289.81 259.677 289.871 259.677C289.994 259.677 290.113 259.727 290.201 259.814C290.288 259.902 290.338 260.021 290.338 260.144V273.887C290.339 273.988 290.307 274.087 290.246 274.168C290.186 274.249 290.1 274.307 290.003 274.334L283.618 276.212C283.547 276.231 283.473 276.234 283.401 276.22C283.329 276.206 283.261 276.175 283.202 276.131C283.144 276.086 283.097 276.027 283.067 275.959C283.037 275.892 283.024 275.818 283.03 275.745L283.111 274.161L281.081 276.242C281.013 276.313 280.924 276.359 280.827 276.374C276.222 277.267 271.557 277.824 266.871 278.039Z" fill="#0F172A"/>
<path d="M320.522 165.381L325.81 269.743C325.81 269.743 325.303 273.559 317.243 274.036C309.184 274.513 309.996 272.565 309.996 272.565L297.39 196.013L292.224 264.018L274.867 265.145L278.318 157.961L320.522 165.381Z" fill="#0F172A"/>
<path d="M314.879 274.62C311.976 274.62 310.26 274.204 309.672 273.371C309.496 273.136 309.42 272.841 309.459 272.549L297.603 200.281L292.762 264.054C292.752 264.176 292.699 264.291 292.611 264.377C292.523 264.462 292.407 264.514 292.285 264.521L274.898 265.627C274.827 265.632 274.756 265.622 274.69 265.598C274.623 265.573 274.563 265.535 274.512 265.485C274.461 265.437 274.421 265.378 274.395 265.314C274.369 265.249 274.357 265.179 274.36 265.109L277.811 157.925C277.813 157.852 277.83 157.78 277.863 157.714C277.895 157.648 277.941 157.59 277.998 157.544C278.055 157.497 278.121 157.464 278.192 157.446C278.263 157.427 278.337 157.425 278.41 157.438L320.613 164.888C320.727 164.907 320.831 164.965 320.907 165.052C320.983 165.139 321.026 165.25 321.03 165.365L326.287 269.727C326.287 269.991 325.628 274.051 317.254 274.539C316.391 274.589 315.599 274.62 314.879 274.62ZM310.463 272.752L310.555 272.843C310.869 273.148 312.148 273.859 317.193 273.534C324.653 273.097 325.313 269.717 325.313 269.677L320.065 165.812L278.806 158.575L275.385 264.612L291.777 263.597L296.913 196.038C296.925 195.915 296.981 195.8 297.07 195.715C297.16 195.629 297.277 195.578 297.4 195.572C297.523 195.565 297.643 195.604 297.739 195.681C297.834 195.757 297.898 195.867 297.918 195.988L310.484 272.539C310.509 272.632 310.509 272.73 310.484 272.823L310.463 272.752Z" fill="#0F172A"/>
<path d="M304.065 101.125C304.065 101.125 297.295 172.002 300.33 176.062C303.364 180.122 322.091 183.34 323.492 175.464C325.796 162.512 324.507 115.985 321.807 111.61C310.906 101.917 304.065 101.125 304.065 101.125Z" fill="#D54407"/>
<path d="M278.32 108.495C278.32 108.495 268.637 172.866 270.464 174.734C272.291 176.601 282.218 179.129 284.958 177.251C287.699 175.373 291.444 101.461 291.444 101.461C286.504 102.549 281.962 104.984 278.32 108.495Z" fill="#D54407"/>
<path d="M291.975 100.181L291.142 107.053C291.593 108.412 292.542 109.551 293.798 110.24C295.053 110.929 296.523 111.118 297.912 110.768C303.15 109.662 303.211 106.627 303.211 106.627C303.211 106.627 303.921 91.1378 303.921 91.0972C303.795 90.7388 303.625 90.3978 303.414 90.0822C302.632 88.3161 301.516 85.8902 301.85 83.9313C302.132 82.3164 302.938 80.8394 304.144 79.7292C303.524 80.0056 302.847 80.135 302.168 80.1073C301.489 80.0796 300.826 79.8955 300.23 79.5694C299.633 79.2433 299.121 78.784 298.731 78.2272C298.341 77.6704 298.085 77.0312 297.983 76.3594C297.983 77.0597 297.364 77.5774 296.775 77.9631C295.906 78.6393 294.832 78.9975 293.73 78.9781C292.289 78.8157 291.213 77.5875 289.863 77.0597C290.072 77.5227 290.107 78.0454 289.961 78.5319C289.816 79.0185 289.5 79.4364 289.072 79.7089C288.191 80.2301 287.141 80.3833 286.148 80.1352C286.808 80.2671 286.25 87.6056 286.24 88.2552C286.147 90.5299 286.201 92.8083 286.402 95.076C286.889 99.1258 291.975 100.181 291.975 100.181Z" fill="white"/>
<path d="M296.38 111.439C292.025 111.439 290.645 107.257 290.635 107.206C290.62 107.136 290.62 107.063 290.635 106.993L291.406 100.568C290.076 100.182 286.331 98.7817 285.885 95.0262C285.69 92.9107 285.633 90.785 285.712 88.6621V88.1343C285.712 88.0328 285.712 87.7486 285.712 87.3426C286.006 82.4199 285.915 80.8771 285.773 80.4711C285.698 80.4147 285.64 80.3377 285.608 80.2494C285.576 80.1612 285.569 80.0654 285.59 79.9737C285.601 79.9082 285.625 79.8455 285.661 79.7896C285.697 79.7337 285.744 79.6858 285.799 79.6487C285.854 79.6116 285.916 79.5862 285.982 79.574C286.047 79.5618 286.114 79.5632 286.179 79.5779C287.041 79.788 287.951 79.6647 288.727 79.2328C289.056 79.025 289.301 78.7063 289.416 78.3341C289.532 77.9618 289.51 77.5606 289.356 77.2028C289.304 77.1114 289.283 77.0063 289.293 76.9019C289.304 76.7976 289.347 76.6991 289.416 76.6201C289.485 76.5411 289.577 76.4854 289.679 76.4607C289.781 76.436 289.888 76.4435 289.985 76.4821C290.556 76.7299 291.101 77.036 291.609 77.3956C292.229 77.8919 292.955 78.2392 293.73 78.4106C294.709 78.4181 295.662 78.1004 296.441 77.5073C297.1 77.081 297.456 76.6953 297.456 76.3299C297.458 76.2011 297.508 76.0777 297.596 75.9839C297.684 75.8901 297.804 75.8325 297.933 75.8224C298.06 75.8107 298.187 75.8485 298.287 75.9279C298.387 76.0072 298.453 76.1221 298.471 76.2487C298.553 76.8485 298.773 77.421 299.114 77.9212C299.455 78.4213 299.908 78.8353 300.436 79.1306C300.965 79.4258 301.555 79.5943 302.16 79.6226C302.764 79.6509 303.367 79.5383 303.921 79.2937C304.03 79.2427 304.154 79.2331 304.27 79.2667C304.386 79.3004 304.485 79.3749 304.55 79.4764C304.616 79.5768 304.643 79.6971 304.629 79.816C304.614 79.9349 304.557 80.0447 304.469 80.126C303.339 81.1571 302.585 82.5359 302.328 84.0439C302.033 85.7795 303.038 88.1039 303.769 89.7076L303.86 89.9004C303.902 89.9913 303.949 90.0794 304.002 90.1643C304.222 90.4625 304.362 90.8119 304.408 91.1793C304.408 91.1793 304.408 91.1793 303.698 106.739C303.698 106.871 303.566 110.19 297.993 111.347C297.46 111.434 296.919 111.464 296.38 111.439ZM291.629 106.993C292.042 108.208 292.899 109.222 294.029 109.83C295.159 110.439 296.478 110.596 297.719 110.271C302.449 109.256 302.612 106.719 302.622 106.607C302.632 106.496 303.322 91.3011 303.332 91.0778C303.332 91.0778 303.16 90.7733 303.079 90.6312C302.997 90.5123 302.926 90.3867 302.865 90.2557L302.784 90.073C302.003 88.2866 300.927 85.8607 301.272 83.8206C301.466 82.6485 301.928 81.537 302.622 80.5726C301.678 80.6294 300.737 80.4258 299.902 79.9839C298.98 79.4607 298.245 78.6621 297.801 77.7001C297.549 77.9506 297.27 78.1719 296.968 78.3599C295.992 79.0701 294.804 79.428 293.599 79.3749C292.669 79.2019 291.792 78.8124 291.041 78.2381L290.493 77.8828C290.463 78.3069 290.339 78.7189 290.128 79.088C289.917 79.4571 289.625 79.7737 289.275 80.0143C288.545 80.4813 287.682 80.6953 286.818 80.6233C286.952 82.8661 286.915 85.1157 286.707 87.3528C286.707 87.7385 286.707 88.0024 286.707 88.1039V88.6215C286.632 90.7038 286.69 92.7888 286.879 94.8638C287.316 98.6091 291.954 99.6241 292.046 99.6343C292.168 99.6632 292.276 99.7359 292.349 99.8387C292.422 99.9414 292.455 100.067 292.441 100.193L291.629 106.993Z" fill="#0F172A"/>
<path d="M291.017 87.5703C291.017 87.5703 287.972 91.539 288.612 92.3104C289.251 93.0818 291.048 92.7367 291.048 92.7367" fill="white"/>
<path d="M290.156 93.3196C289.806 93.3451 289.455 93.2938 289.127 93.1693C288.799 93.0448 288.502 92.8501 288.257 92.5989C287.567 91.7057 289.191 89.1987 290.663 87.2499C290.744 87.1422 290.864 87.071 290.997 87.052C291.13 87.0329 291.266 87.0676 291.374 87.1484C291.428 87.1875 291.474 87.2372 291.509 87.2945C291.543 87.3519 291.566 87.4156 291.576 87.482C291.585 87.5484 291.581 87.6159 291.564 87.6807C291.547 87.7455 291.516 87.8061 291.475 87.8589C290.125 89.6554 289.009 91.6042 289.09 92.0407C289.333 92.335 290.379 92.335 290.998 92.2234C291.063 92.21 291.131 92.2097 291.196 92.2224C291.261 92.235 291.324 92.2605 291.379 92.2972C291.435 92.334 291.483 92.3814 291.52 92.4366C291.557 92.4919 291.584 92.5539 291.597 92.6192C291.61 92.6852 291.61 92.7533 291.597 92.8193C291.583 92.8853 291.557 92.948 291.519 93.0037C291.481 93.0594 291.433 93.1071 291.377 93.1439C291.32 93.1807 291.257 93.2059 291.191 93.2181C290.85 93.2838 290.503 93.3177 290.156 93.3196Z" fill="#0F172A"/>
<path d="M291.973 100.182C291.973 100.182 296.033 100.182 297.89 99.0859C297.89 99.0859 296.307 103.826 291.922 104.993L291.973 100.182Z" fill="#0F172A"/>
<path d="M291.922 105.494C291.809 105.496 291.698 105.461 291.607 105.393C291.545 105.345 291.495 105.284 291.461 105.213C291.428 105.143 291.412 105.065 291.414 104.987L291.465 100.176C291.465 100.041 291.519 99.9118 291.614 99.8167C291.709 99.7215 291.838 99.668 291.973 99.668C292.186 99.668 295.921 99.668 297.626 98.653C297.711 98.5941 297.812 98.5625 297.915 98.5625C298.019 98.5625 298.12 98.5941 298.205 98.653C298.283 98.7199 298.341 98.8085 298.37 98.9078C298.399 99.007 298.398 99.1125 298.367 99.2113C298.296 99.4143 296.642 104.215 292.044 105.454L291.922 105.494ZM292.47 100.683V104.296C294.419 103.459 296.006 101.955 296.946 100.054C295.487 100.457 293.983 100.678 292.47 100.713V100.683Z" fill="#0F172A"/>
<path d="M325.912 158.406H325.861C325.201 158.325 309.773 156.539 304.871 153.788C304.812 153.756 304.76 153.713 304.718 153.661C304.677 153.609 304.646 153.549 304.628 153.484C304.61 153.42 304.605 153.352 304.614 153.286C304.622 153.22 304.644 153.156 304.678 153.098C304.746 152.983 304.856 152.899 304.984 152.863C305.113 152.827 305.251 152.842 305.368 152.905C310.088 155.554 325.821 157.371 325.973 157.391C326.107 157.4 326.233 157.461 326.323 157.562C326.412 157.663 326.458 157.795 326.45 157.929C326.442 158.064 326.381 158.19 326.28 158.279C326.179 158.369 326.047 158.415 325.912 158.406Z" fill="#0F172A"/>
<path d="M321.806 111.609C321.806 111.609 352.418 155.254 339.304 166.541C327.287 176.864 300.734 159.72 300.734 159.72L302.338 145.226C302.338 145.226 323.359 156.929 323.704 151.479C324.201 143.46 313.899 132.508 313.899 132.508C312.973 130.732 312.413 128.789 312.252 126.792C312.092 124.796 312.334 122.787 312.965 120.886C313.565 118.734 314.685 116.761 316.226 115.143C317.768 113.525 319.684 112.312 321.806 111.609Z" fill="#D54407"/>
<path d="M274.049 146.787C273.983 146.777 273.92 146.754 273.863 146.72C273.806 146.685 273.756 146.64 273.716 146.586C273.677 146.532 273.648 146.471 273.632 146.407C273.616 146.342 273.613 146.274 273.623 146.208C274.567 139.875 279.104 115.687 279.155 115.444C279.182 115.313 279.258 115.198 279.368 115.123C279.477 115.047 279.612 115.017 279.743 115.038C279.876 115.065 279.993 115.143 280.068 115.254C280.144 115.366 280.173 115.504 280.149 115.637C280.099 115.88 275.562 139.997 274.628 146.361C274.605 146.493 274.533 146.611 274.425 146.691C274.317 146.77 274.182 146.805 274.049 146.787Z" fill="#0F172A"/>
<path d="M269.771 165.921H300.292C300.86 165.911 301.419 165.774 301.929 165.521C302.438 165.268 302.884 164.905 303.236 164.458C303.588 164.011 303.836 163.492 303.962 162.937C304.088 162.383 304.09 161.807 303.966 161.252L297.48 129.878C297.294 128.978 296.809 128.168 296.103 127.58C295.396 126.992 294.512 126.661 293.593 126.641H263.518C262.916 126.65 262.323 126.794 261.783 127.061C261.242 127.329 260.768 127.713 260.395 128.186C260.022 128.66 259.759 129.21 259.625 129.798C259.491 130.385 259.49 130.995 259.621 131.584L266.096 162.856C266.261 163.713 266.716 164.486 267.386 165.045C268.056 165.604 268.899 165.913 269.771 165.921Z" fill="white"/>
<path d="M300.296 166.376H269.775C268.798 166.363 267.855 166.015 267.104 165.391C266.352 164.766 265.837 163.903 265.644 162.945L259.179 131.673C259.036 131 259.045 130.303 259.207 129.634C259.368 128.964 259.678 128.34 260.113 127.806C260.524 127.297 261.043 126.886 261.633 126.603C262.223 126.321 262.869 126.173 263.523 126.172H293.597C294.626 126.187 295.618 126.553 296.408 127.211C297.199 127.868 297.74 128.777 297.942 129.785L304.427 161.149C304.564 161.788 304.555 162.45 304.402 163.086C304.249 163.722 303.956 164.315 303.544 164.823C303.152 165.306 302.657 165.696 302.095 165.965C301.533 166.234 300.919 166.374 300.296 166.376ZM263.523 127.106C263.007 127.106 262.497 127.222 262.032 127.445C261.566 127.668 261.157 127.992 260.833 128.395C260.493 128.816 260.249 129.308 260.12 129.834C259.99 130.36 259.977 130.908 260.082 131.44L266.558 162.722C266.704 163.471 267.104 164.148 267.69 164.637C268.276 165.127 269.012 165.4 269.775 165.412H300.296C300.782 165.409 301.26 165.298 301.697 165.088C302.135 164.877 302.519 164.572 302.824 164.194C303.15 163.795 303.382 163.328 303.503 162.827C303.624 162.326 303.631 161.805 303.524 161.301L297.028 129.927C296.87 129.13 296.443 128.41 295.819 127.889C295.195 127.368 294.411 127.077 293.597 127.065L263.523 127.106Z" fill="#0F172A"/>
<path d="M306.578 150.164C306.754 149.067 306.671 147.945 306.334 146.886C306.002 146.174 305.544 145.528 304.984 144.978C304.031 143.963 303.014 143.01 301.939 142.125C300.924 141.334 299.777 140.562 298.559 140.826C298.935 142.645 299.964 144.262 301.452 145.373C300.965 144.792 300.32 144.365 299.595 144.145C299.107 143.993 298.448 144.013 298.245 144.501C298.198 144.657 298.184 144.822 298.203 144.984C298.222 145.146 298.274 145.303 298.356 145.444C298.924 146.701 299.796 147.796 300.894 148.632L299.716 147.88C299.416 147.659 299.069 147.51 298.701 147.444C298.521 147.414 298.335 147.444 298.172 147.528C298.01 147.612 297.878 147.746 297.798 147.911C297.724 148.186 297.753 148.478 297.879 148.733C298.186 149.464 298.692 150.094 299.341 150.55C298.917 150.187 298.406 149.939 297.859 149.829C297.582 149.788 297.3 149.847 297.064 149.996C296.827 150.145 296.652 150.374 296.57 150.641C296.54 150.947 296.603 151.255 296.753 151.524C297.625 153.26 299.706 153.453 300.721 154.914C301.482 156 301.127 157.168 302.67 157.827C306.527 159.421 306.365 152.478 306.578 150.164Z" fill="white"/>
<path d="M303.786 158.573C303.352 158.566 302.923 158.469 302.528 158.289C302.099 158.115 301.718 157.84 301.419 157.486C301.12 157.132 300.912 156.711 300.812 156.259C300.709 155.901 300.555 155.559 300.356 155.244C299.897 154.691 299.326 154.241 298.681 153.924C297.712 153.464 296.903 152.726 296.357 151.803C296.141 151.436 296.058 151.006 296.123 150.585C296.212 150.245 296.409 149.944 296.683 149.724C296.957 149.505 297.295 149.38 297.646 149.367C297.576 149.239 297.515 149.107 297.463 148.971C297.28 148.599 297.247 148.17 297.372 147.774C297.476 147.531 297.651 147.325 297.874 147.182C298.096 147.04 298.356 146.966 298.62 146.972C298.349 146.567 298.115 146.139 297.92 145.693C297.803 145.49 297.732 145.264 297.711 145.031C297.69 144.798 297.72 144.563 297.798 144.343C297.915 144.101 298.103 143.9 298.337 143.768C298.571 143.635 298.839 143.577 299.107 143.602C298.623 142.8 298.28 141.921 298.092 141.004C298.063 140.937 298.048 140.866 298.049 140.793C298.049 140.721 298.064 140.65 298.094 140.584C298.124 140.518 298.167 140.459 298.221 140.41C298.275 140.362 298.338 140.325 298.407 140.303C299.858 139.999 301.198 140.892 302.203 141.704C303.303 142.6 304.341 143.569 305.309 144.607C305.911 145.19 306.403 145.878 306.76 146.637C307.134 147.765 307.228 148.966 307.034 150.139C307.034 150.433 307.034 150.798 306.963 151.214C306.842 153.549 306.639 157.071 304.933 158.157C304.599 158.404 304.201 158.548 303.786 158.573ZM297.778 150.321C297.639 150.312 297.501 150.346 297.383 150.419C297.265 150.492 297.172 150.6 297.118 150.727C297.108 150.927 297.158 151.124 297.26 151.296C297.724 152.039 298.394 152.632 299.188 153.001C299.979 153.377 300.674 153.929 301.218 154.615C301.48 155.015 301.679 155.453 301.807 155.914C301.856 156.233 301.987 156.535 302.188 156.788C302.389 157.041 302.654 157.236 302.954 157.355C303.179 157.481 303.432 157.546 303.69 157.546C303.948 157.546 304.201 157.481 304.426 157.355C305.725 156.543 305.918 153.082 306.03 151.265C306.03 150.829 306.03 150.443 306.101 150.149C306.269 149.131 306.196 148.088 305.887 147.104C305.583 146.446 305.16 145.851 304.639 145.348C303.687 144.348 302.67 143.412 301.594 142.546C300.927 141.912 300.092 141.483 299.188 141.308C299.513 142.379 300.083 143.359 300.853 144.17C301.234 144.403 301.577 144.694 301.868 145.033C301.952 145.126 301.999 145.247 301.999 145.373C301.999 145.499 301.952 145.62 301.868 145.713C301.784 145.805 301.669 145.863 301.545 145.874C301.421 145.885 301.297 145.85 301.198 145.774C300.86 145.528 300.541 145.257 300.244 144.962C300.005 144.816 299.75 144.701 299.483 144.617C299.158 144.526 298.803 144.556 298.752 144.688C298.723 144.875 298.763 145.066 298.864 145.226C299.389 146.409 300.206 147.44 301.239 148.22C301.292 148.258 301.338 148.305 301.372 148.36C301.407 148.416 301.43 148.477 301.441 148.542C301.451 148.606 301.448 148.672 301.433 148.735C301.417 148.799 301.389 148.858 301.35 148.91C301.276 149.019 301.163 149.094 301.034 149.121C300.905 149.147 300.771 149.123 300.66 149.052L299.483 148.312C299.255 148.135 298.992 148.01 298.711 147.946C298.642 147.931 298.569 147.936 298.502 147.961C298.436 147.986 298.378 148.03 298.336 148.088C298.315 148.242 298.343 148.398 298.417 148.535C298.662 149.132 299.066 149.652 299.584 150.037L299.706 150.128C299.761 150.166 299.807 150.214 299.843 150.27C299.879 150.325 299.903 150.388 299.914 150.453C299.926 150.518 299.924 150.585 299.909 150.65C299.894 150.714 299.867 150.775 299.828 150.829C299.752 150.938 299.636 151.014 299.505 151.038C299.374 151.063 299.238 151.035 299.128 150.961L298.996 150.869C298.672 150.602 298.289 150.418 297.879 150.331L297.778 150.321Z" fill="#0F172A"/>
<path d="M260.101 147.982C260.253 145.881 260.883 143.556 262.659 142.501C263.208 142.185 263.828 142.013 264.462 142.001C265.095 141.988 265.721 142.136 266.283 142.43C266.386 142.47 266.478 142.533 266.554 142.614C266.629 142.695 266.686 142.791 266.719 142.897C266.79 143.232 266.486 143.506 266.211 143.678C265.624 144.047 264.984 144.324 264.313 144.5C264.86 144.456 265.406 144.582 265.877 144.862C266.348 145.142 266.721 145.562 266.942 146.063C266.281 146.841 265.356 147.347 264.344 147.485C264.68 147.395 265.035 147.409 265.363 147.525C265.691 147.641 265.976 147.853 266.181 148.134C266.841 149.088 266.313 149.352 265.592 149.92C265.909 149.853 266.239 149.885 266.536 150.012C266.687 150.08 266.814 150.192 266.901 150.333C266.987 150.474 267.03 150.638 267.023 150.804C266.973 151.413 266.232 151.605 265.714 151.91C265.297 152.164 264.981 152.555 264.821 153.016C264.762 153.281 264.677 153.54 264.567 153.788C263.552 155.604 261.299 154.092 260.741 152.773C260.169 151.244 259.95 149.607 260.101 147.982Z" fill="white"/>
<path d="M263.246 155.143H263.124C262.511 155.057 261.93 154.819 261.434 154.45C260.937 154.081 260.541 153.593 260.282 153.032C259.675 151.413 259.44 149.679 259.592 147.957C259.734 145.927 260.333 143.298 262.403 142.07C263.026 141.711 263.73 141.515 264.448 141.501C265.167 141.487 265.878 141.654 266.514 141.989C266.685 142.062 266.836 142.173 266.958 142.314C267.079 142.455 267.167 142.621 267.214 142.801C267.275 143.085 267.214 143.623 266.484 144.11L266.037 144.374C266.648 144.704 267.13 145.229 267.407 145.866C267.443 145.953 267.454 146.048 267.44 146.141C267.426 146.234 267.386 146.321 267.326 146.394C266.998 146.796 266.603 147.139 266.159 147.409C266.329 147.539 266.477 147.697 266.595 147.876C267.143 148.657 267.052 149.185 266.758 149.581C267 149.694 267.204 149.877 267.341 150.107C267.479 150.337 267.544 150.602 267.529 150.87C267.468 151.621 266.798 151.956 266.321 152.189L265.976 152.372C265.659 152.559 265.421 152.855 265.306 153.204C265.277 153.28 265.253 153.358 265.235 153.438C265.189 153.653 265.114 153.862 265.012 154.057C264.842 154.38 264.589 154.651 264.278 154.842C263.967 155.034 263.611 155.137 263.246 155.143ZM260.607 148.038C260.463 149.596 260.667 151.167 261.206 152.636C261.394 153.024 261.671 153.361 262.015 153.62C262.36 153.88 262.76 154.054 263.185 154.128C263.381 154.133 263.575 154.081 263.743 153.979C263.91 153.876 264.044 153.727 264.129 153.549C264.185 153.425 264.229 153.296 264.261 153.164C264.261 153.062 264.312 152.971 264.342 152.869C264.537 152.29 264.933 151.8 265.459 151.489L265.865 151.266C266.25 151.083 266.504 150.941 266.524 150.768C266.545 150.596 266.433 150.545 266.311 150.484C266.107 150.406 265.885 150.389 265.672 150.433C265.562 150.449 265.451 150.429 265.354 150.375C265.257 150.321 265.18 150.238 265.136 150.137C265.091 150.036 265.08 149.923 265.105 149.815C265.131 149.707 265.191 149.611 265.276 149.54L265.469 149.388C266.088 148.911 266.088 148.911 265.763 148.444C265.438 147.977 265.103 147.916 264.413 148.008C264.346 148.017 264.278 148.014 264.212 147.996C264.147 147.979 264.086 147.948 264.033 147.907C263.979 147.865 263.935 147.813 263.903 147.753C263.871 147.694 263.851 147.628 263.845 147.561C263.827 147.428 263.864 147.293 263.945 147.187C264.027 147.08 264.148 147.01 264.281 146.993C265.05 146.885 265.763 146.528 266.311 145.978C266.118 145.639 265.831 145.364 265.486 145.184C265.14 145.004 264.75 144.927 264.362 144.963C264.235 144.978 264.107 144.944 264.004 144.869C263.9 144.794 263.829 144.682 263.804 144.557C263.779 144.43 263.803 144.299 263.871 144.19C263.938 144.081 264.045 144.001 264.169 143.968C264.789 143.803 265.381 143.546 265.925 143.207C266.128 143.085 266.199 142.983 266.21 142.943L266.027 142.831C265.545 142.575 265.006 142.447 264.461 142.458C263.916 142.468 263.382 142.618 262.911 142.892C261.216 143.907 260.718 146.211 260.597 147.967L260.607 148.038Z" fill="#0F172A"/>
<path d="M286.545 89.4407C285.802 89.4407 285.076 89.2204 284.458 88.8078C283.841 88.3951 283.359 87.8086 283.075 87.1224C282.791 86.4361 282.716 85.681 282.861 84.9525C283.006 84.224 283.364 83.5549 283.889 83.0297C284.414 82.5044 285.083 82.1468 285.812 82.0019C286.54 81.8569 287.296 81.9313 287.982 82.2156C288.668 82.4998 289.255 82.9812 289.667 83.5987C290.08 84.2163 290.3 84.9424 290.3 85.6852C290.297 86.6804 289.901 87.6341 289.197 88.3378C288.493 89.0415 287.54 89.438 286.545 89.4407ZM286.545 82.9447C286.003 82.9447 285.473 83.1054 285.022 83.4065C284.571 83.7077 284.22 84.1357 284.013 84.6364C283.805 85.1372 283.751 85.6882 283.857 86.2198C283.962 86.7514 284.223 87.2397 284.607 87.623C284.99 88.0063 285.478 88.2673 286.01 88.373C286.542 88.4788 287.093 88.4245 287.593 88.2171C288.094 88.0097 288.522 87.6584 288.823 87.2077C289.124 86.7571 289.285 86.2272 289.285 85.6852C289.282 84.9592 288.993 84.2637 288.479 83.7503C287.966 83.237 287.271 82.9474 286.545 82.9447Z" fill="#0F172A"/>
<path d="M294.904 89.4407C294.161 89.4407 293.435 89.2204 292.817 88.8078C292.2 88.3951 291.719 87.8086 291.434 87.1224C291.15 86.4361 291.076 85.681 291.221 84.9525C291.366 84.224 291.723 83.5549 292.248 83.0297C292.774 82.5044 293.443 82.1468 294.171 82.0019C294.9 81.8569 295.655 81.9313 296.341 82.2156C297.027 82.4998 297.614 82.9812 298.027 83.5987C298.439 84.2163 298.659 84.9424 298.659 85.6852C298.659 86.6812 298.264 87.6364 297.559 88.3407C296.855 89.045 295.9 89.4407 294.904 89.4407ZM294.904 82.9447C294.362 82.9447 293.832 83.1054 293.381 83.4065C292.931 83.7077 292.579 84.1357 292.372 84.6364C292.165 85.1372 292.11 85.6882 292.216 86.2198C292.322 86.7514 292.583 87.2397 292.966 87.623C293.349 88.0063 293.838 88.2673 294.369 88.373C294.901 88.4788 295.452 88.4245 295.953 88.2171C296.453 88.0097 296.881 87.6584 297.183 87.2077C297.484 86.7571 297.644 86.2272 297.644 85.6852C297.644 84.9584 297.356 84.2613 296.842 83.7474C296.328 83.2334 295.631 82.9447 294.904 82.9447Z" fill="#0F172A"/>
<path d="M291.544 95.6432C290.245 95.6172 288.968 95.298 287.809 94.7094C287.694 94.6414 287.61 94.5317 287.574 94.403C287.538 94.2744 287.553 94.1369 287.616 94.0192C287.682 93.9022 287.792 93.8163 287.921 93.7801C288.051 93.744 288.189 93.7606 288.306 93.8263C288.499 93.9278 293.016 96.4044 295.777 92.2226C295.851 92.1096 295.967 92.0305 296.099 92.0029C296.231 91.9753 296.369 92.0014 296.482 92.0754C296.595 92.1495 296.674 92.2654 296.702 92.3977C296.729 92.53 296.703 92.6678 296.629 92.7809C296.105 93.6602 295.36 94.387 294.468 94.8891C293.576 95.3912 292.568 95.6512 291.544 95.6432Z" fill="#0F172A"/>
<path d="M291.656 86.1947H289.789C289.654 86.1947 289.525 86.1412 289.43 86.046C289.335 85.9509 289.281 85.8218 289.281 85.6872C289.281 85.5526 289.335 85.4235 289.43 85.3283C289.525 85.2332 289.654 85.1797 289.789 85.1797H291.656C291.791 85.1797 291.92 85.2332 292.015 85.3283C292.11 85.4235 292.164 85.5526 292.164 85.6872C292.161 85.821 292.107 85.9485 292.012 86.0432C291.918 86.1378 291.79 86.1921 291.656 86.1947Z" fill="#0F172A"/>
<path d="M305.648 88.2259C305.604 88.2356 305.559 88.2356 305.516 88.2259L298.025 86.1959C297.891 86.1609 297.775 86.0739 297.705 85.954C297.635 85.8341 297.615 85.6911 297.65 85.5565C297.685 85.4219 297.772 85.3067 297.892 85.2363C298.012 85.1658 298.155 85.1459 298.289 85.1809L305.78 87.2109C305.909 87.2466 306.018 87.3316 306.085 87.4475C306.151 87.5634 306.169 87.7009 306.135 87.8301C306.112 87.942 306.051 88.0425 305.962 88.1146C305.873 88.1867 305.762 88.226 305.648 88.2259Z" fill="#0F172A"/>
<path d="M301.453 88.9319C301.654 88.2087 302.081 87.5686 302.671 87.1049C303.121 86.7248 303.648 86.4457 304.215 86.2863C304.783 86.127 305.377 86.0912 305.96 86.1813C306.54 86.4265 307.021 86.8608 307.323 87.4137C307.625 87.9665 307.731 88.6054 307.624 89.2263C307.541 90.0704 307.231 90.8763 306.727 91.5588C306.223 92.2413 305.544 92.775 304.762 93.1036C304.249 93.2872 303.704 93.3657 303.16 93.3343C302.616 93.3029 302.084 93.1623 301.595 92.9209" fill="white"/>
<path d="M303.41 93.8458C302.705 93.8447 302.011 93.6815 301.38 93.3687C301.319 93.3397 301.266 93.2988 301.222 93.2485C301.178 93.1982 301.144 93.1396 301.124 93.0761C301.103 93.0127 301.095 92.9456 301.101 92.8791C301.106 92.8125 301.125 92.7477 301.156 92.6887C301.186 92.6286 301.226 92.5749 301.276 92.5307C301.326 92.4864 301.385 92.4524 301.448 92.4307C301.511 92.4091 301.578 92.4001 301.645 92.4043C301.711 92.4085 301.776 92.4258 301.836 92.4552C302.264 92.6658 302.729 92.7895 303.205 92.8191C303.68 92.8487 304.157 92.7837 304.607 92.6278C305.299 92.3268 305.898 91.8478 306.343 91.2398C306.789 90.6318 307.066 89.9164 307.145 89.1666C307.234 88.6642 307.154 88.1464 306.917 87.6945C306.68 87.2426 306.299 86.8822 305.835 86.6697C305.329 86.6069 304.816 86.6494 304.327 86.7943C303.838 86.9393 303.384 87.1837 302.993 87.5122C302.499 87.9088 302.143 88.4528 301.978 89.0651C301.96 89.1318 301.93 89.1942 301.887 89.2489C301.845 89.3036 301.793 89.3495 301.733 89.3839C301.673 89.4183 301.607 89.4405 301.539 89.4494C301.47 89.4583 301.401 89.4536 301.334 89.4356C301.267 89.4176 301.205 89.3867 301.15 89.3445C301.096 89.3024 301.05 89.2499 301.015 89.1901C300.981 89.1302 300.959 89.0642 300.95 88.9957C300.941 88.9273 300.945 88.8577 300.963 88.7911C301.2 87.9842 301.687 87.2733 302.354 86.7611C302.867 86.3297 303.468 86.0154 304.115 85.8401C304.762 85.6648 305.439 85.6327 306.099 85.7461C306.793 86.0226 307.372 86.527 307.741 87.1764C308.11 87.8257 308.247 88.5813 308.129 89.3189C308.038 90.255 307.694 91.1488 307.135 91.905C306.575 92.6611 305.821 93.2512 304.952 93.6123C304.456 93.7803 303.934 93.8593 303.41 93.8458Z" fill="#0F172A"/>
<path d="M320.567 153.102C315.888 153.102 309.037 149.316 308.052 148.758C307.994 148.724 307.944 148.68 307.903 148.627C307.862 148.574 307.832 148.513 307.814 148.449C307.797 148.384 307.793 148.317 307.801 148.251C307.81 148.184 307.831 148.12 307.865 148.062C307.898 148.004 307.942 147.954 307.995 147.913C308.048 147.872 308.109 147.842 308.173 147.825C308.238 147.807 308.305 147.803 308.372 147.811C308.438 147.82 308.502 147.841 308.56 147.875C311.838 149.742 320.892 153.965 323.277 151.153C325.663 148.342 318.517 134.426 315.553 129.31C315.501 129.196 315.494 129.066 315.532 128.947C315.571 128.827 315.652 128.726 315.761 128.663C315.869 128.599 315.997 128.579 316.12 128.605C316.243 128.631 316.352 128.701 316.426 128.803C317.553 130.752 327.378 147.895 324.059 151.803C323.608 152.262 323.061 152.616 322.458 152.841C321.854 153.065 321.209 153.154 320.567 153.102Z" fill="#0F172A"/>
<path d="M324.141 170.358H324.069C316.569 169.232 306.814 163.253 306.388 163.03C306.331 162.995 306.282 162.949 306.243 162.894C306.204 162.84 306.177 162.779 306.162 162.714C306.146 162.648 306.144 162.581 306.155 162.515C306.166 162.449 306.19 162.386 306.226 162.33C306.26 162.272 306.306 162.222 306.36 162.182C306.414 162.142 306.476 162.114 306.541 162.099C306.607 162.084 306.675 162.082 306.741 162.094C306.807 162.105 306.87 162.13 306.926 162.167C307.017 162.218 316.924 168.257 324.181 169.364C324.247 169.371 324.311 169.392 324.369 169.425C324.427 169.458 324.477 169.502 324.517 169.556C324.557 169.609 324.586 169.67 324.601 169.734C324.617 169.799 324.619 169.866 324.607 169.932C324.589 170.045 324.533 170.149 324.448 170.227C324.364 170.304 324.255 170.351 324.141 170.358Z" fill="#0F172A"/>
<path d="M59.4791 183.736L52.6562 212.734L87.9187 221.031L94.7416 192.033L59.4791 183.736Z" fill="white"/>
<path d="M87.9271 221.506H87.8155L52.5544 213.203C52.4946 213.19 52.438 213.165 52.388 213.129C52.3381 213.094 52.2957 213.049 52.2636 212.997C52.2314 212.945 52.21 212.887 52.2006 212.826C52.1913 212.766 52.1943 212.704 52.2093 212.645L59.0301 183.646C59.059 183.527 59.1338 183.423 59.2383 183.359C59.3428 183.294 59.4686 183.273 59.5883 183.301L94.8494 191.604C94.9094 191.616 94.9663 191.641 95.0168 191.676C95.0673 191.711 95.1105 191.755 95.1438 191.807C95.2063 191.914 95.2245 192.041 95.1945 192.162L88.3737 221.16C88.3444 221.277 88.2719 221.379 88.1707 221.445C88.097 221.488 88.0125 221.509 87.9271 221.506ZM53.2141 212.371L87.582 220.491L94.1897 192.395L59.8319 184.275L53.2141 212.371Z" fill="#0F172A"/>
<path d="M80.914 178.141C80.914 178.141 80.3253 193.113 78.7724 192.22C76.7424 191.032 77.5848 187.581 77.5848 187.581L70.7031 186.13C70.7031 186.13 73.6263 176.193 73.8192 175.858C74.012 175.523 80.914 178.141 80.914 178.141Z" fill="white"/>
<path d="M78.9045 192.714C78.7758 192.714 78.6495 192.678 78.5391 192.612C76.6715 191.536 76.8644 188.999 77.0369 187.943L70.612 186.583C70.5489 186.568 70.4895 186.54 70.4372 186.502C70.3849 186.464 70.3408 186.415 70.3075 186.36C70.2621 186.242 70.2621 186.112 70.3075 185.994C71.4037 182.259 73.2814 175.956 73.4743 175.621C73.6671 175.286 73.86 174.941 81.1274 177.712C81.22 177.743 81.2999 177.803 81.3549 177.884C81.4098 177.965 81.4369 178.061 81.4319 178.159C81.2695 182.219 80.7417 191.831 79.3004 192.622C79.1808 192.692 79.0427 192.724 78.9045 192.714ZM71.292 185.771L77.6764 187.121C77.8012 187.151 77.91 187.227 77.9809 187.334C78.0256 187.448 78.0256 187.575 77.9809 187.689C77.9809 187.689 77.2602 190.653 78.8233 191.749C79.4932 190.734 80.1428 184.279 80.3864 178.473C77.7779 177.458 74.9663 176.514 74.0934 176.332C73.7585 177.458 72.3273 182.269 71.292 185.771Z" fill="#0F172A"/>
<path d="M91.5391 262.275C91.5391 262.275 90.9707 271.654 91.0012 275.207C91.0316 278.759 91.0012 282.098 95.1728 281.297C97.4464 280.88 109.931 277.724 108.784 275.399C107.637 273.075 99.5272 272.476 99.5272 272.476L100.258 261.758" fill="white"/>
<path d="M94.0689 281.902C93.3109 281.938 92.5653 281.7 91.9679 281.232C90.5875 280.096 90.5672 277.792 90.5469 275.356V275.213C90.5469 271.681 91.0747 262.343 91.0747 262.242C91.0785 262.182 91.0942 262.123 91.1208 262.069C91.1474 262.015 91.1844 261.967 91.2297 261.927C91.275 261.888 91.3276 261.858 91.3846 261.838C91.4416 261.819 91.5019 261.811 91.5619 261.815C91.6232 261.817 91.6837 261.83 91.7395 261.856C91.7953 261.882 91.8453 261.918 91.8862 261.964C91.9272 262.01 91.9583 262.063 91.9776 262.122C91.9968 262.18 92.0039 262.242 91.9983 262.303C91.9983 262.394 91.4401 271.702 91.4705 275.203V275.345C91.4705 277.558 91.4705 279.659 92.5566 280.522C92.9283 280.762 93.3479 280.918 93.7861 280.979C94.2244 281.041 94.6707 281.006 95.0941 280.877C98.0376 280.329 107.447 277.71 108.35 275.914C108.375 275.873 108.388 275.825 108.388 275.777C108.388 275.728 108.375 275.681 108.35 275.64C107.599 274.127 102.514 273.204 99.4789 272.98C99.3568 272.97 99.2436 272.912 99.1639 272.819C99.0841 272.726 99.0441 272.605 99.0526 272.483L99.7834 261.765C99.7937 261.644 99.8498 261.531 99.9404 261.45C100.031 261.369 100.149 261.325 100.271 261.328C100.394 261.339 100.508 261.396 100.589 261.489C100.67 261.582 100.713 261.702 100.707 261.826L100.007 272.087C101.884 272.26 108.127 273.001 109.142 275.234C109.229 275.403 109.274 275.591 109.274 275.782C109.274 275.973 109.229 276.16 109.142 276.33C107.751 279.091 95.3377 281.76 95.2159 281.781C94.838 281.856 94.4541 281.896 94.0689 281.902Z" fill="#0F172A"/>
<path d="M120.711 263.393C120.711 263.393 120.143 272.771 120.173 276.324C120.204 279.876 120.173 283.216 124.345 282.414C126.618 281.998 140.087 279.846 138.94 277.521C137.793 275.197 128.699 273.593 128.699 273.593L129.43 262.875" fill="white"/>
<path d="M123.241 283.024C122.483 283.06 121.737 282.822 121.14 282.354C119.759 281.217 119.739 278.913 119.719 276.477V276.315C119.719 272.783 120.247 263.445 120.247 263.353C120.254 263.231 120.31 263.117 120.401 263.036C120.492 262.954 120.612 262.911 120.734 262.917C120.795 262.918 120.856 262.932 120.911 262.958C120.967 262.983 121.017 263.02 121.058 263.066C121.099 263.111 121.13 263.165 121.149 263.223C121.169 263.281 121.176 263.343 121.17 263.404C121.17 263.496 120.612 272.813 120.642 276.305V276.447C120.642 278.66 120.642 280.761 121.728 281.623C122.1 281.864 122.52 282.02 122.958 282.081C123.396 282.142 123.843 282.107 124.266 281.979L124.976 281.847C135.461 280.01 138.171 278.7 138.517 277.919C138.517 277.838 138.517 277.797 138.517 277.746C137.755 276.214 132.041 274.701 128.61 274.072C128.497 274.054 128.395 273.994 128.325 273.903C128.255 273.813 128.223 273.699 128.235 273.585L128.965 262.866C128.976 262.745 129.032 262.633 129.122 262.551C129.213 262.47 129.331 262.427 129.453 262.43C129.576 262.44 129.69 262.498 129.771 262.591C129.852 262.683 129.895 262.804 129.889 262.927L129.199 273.27C131.148 273.635 138.253 275.117 139.349 277.33C139.432 277.486 139.476 277.66 139.476 277.838C139.476 278.015 139.432 278.189 139.349 278.345C138.608 279.817 134.274 281.177 125.139 282.77L124.439 282.902C124.043 282.976 123.643 283.017 123.241 283.024Z" fill="#0F172A"/>
<path d="M90.3352 156.407C90.3352 156.407 87.4526 256.324 88.9751 264.87C88.9751 264.87 94.8317 271.478 102.424 268.179L112.036 187.141L117.111 268.108C117.111 268.108 121.973 272.939 132.163 264.911V152.875L90.3352 156.407Z" fill="#0F172A"/>
<path d="M121.525 270.08C119.784 270.17 118.075 269.593 116.744 268.466C116.654 268.381 116.6 268.265 116.592 268.141L111.893 192.777L102.95 268.243C102.938 268.331 102.903 268.414 102.85 268.485C102.797 268.556 102.727 268.612 102.646 268.649C94.8 272.049 88.6694 265.279 88.6085 265.208C88.5461 265.136 88.5041 265.048 88.4867 264.954C86.9845 256.459 89.7352 160.47 89.8468 156.349C89.8535 156.226 89.9043 156.108 89.99 156.019C90.0756 155.93 90.1905 155.874 90.3137 155.862L132.111 152.33C132.181 152.324 132.252 152.333 132.318 152.356C132.384 152.379 132.445 152.416 132.497 152.463C132.548 152.511 132.589 152.569 132.617 152.633C132.645 152.698 132.66 152.767 132.66 152.837V264.914C132.66 264.991 132.643 265.068 132.609 265.139C132.576 265.209 132.527 265.271 132.467 265.32C127.727 269.045 124.093 270.08 121.525 270.08ZM117.597 267.867C118.419 268.537 122.905 271.46 131.645 264.67V153.426L90.8517 156.877C90.6487 164.165 88.0807 255.657 89.4713 264.639C90.2528 265.472 95.3684 270.506 101.976 267.827L111.548 187.083C111.55 187.019 111.566 186.956 111.593 186.899C111.621 186.841 111.661 186.789 111.709 186.747C111.758 186.705 111.814 186.674 111.876 186.655C111.937 186.636 112.001 186.63 112.065 186.637C112.191 186.639 112.312 186.688 112.404 186.774C112.496 186.86 112.552 186.978 112.563 187.104L117.597 267.867Z" fill="#0F172A"/>
<path d="M175.484 113.29C175.484 113.29 181.047 110.143 181.453 109.798C181.859 109.453 183.797 104.307 184.112 103.972C184.427 103.637 185.208 103.028 185.472 103.739C185.736 104.449 185.167 108.398 185.167 108.398C185.167 108.398 192.009 103.049 192.486 103.323C192.963 103.597 193.318 104.216 192.242 105.718C191.27 106.88 190.123 107.884 188.842 108.692C188.842 108.692 191.247 111.392 190.872 112.316C190.496 113.239 181.371 119.36 181.371 119.36" fill="white"/>
<path d="M181.406 119.846C181.33 119.848 181.255 119.83 181.187 119.795C181.119 119.759 181.062 119.707 181.021 119.643C180.986 119.592 180.961 119.535 180.949 119.475C180.936 119.415 180.935 119.353 180.947 119.293C180.958 119.233 180.981 119.175 181.015 119.124C181.048 119.072 181.092 119.028 181.142 118.993C185.466 116.101 190.135 112.751 190.48 112.152C190.592 111.817 189.648 110.315 188.45 109.016C188.405 108.966 188.372 108.906 188.352 108.841C188.333 108.776 188.328 108.707 188.339 108.64C188.347 108.574 188.371 108.51 188.408 108.454C188.445 108.397 188.494 108.35 188.552 108.316C189.782 107.543 190.884 106.584 191.82 105.474C192.429 104.611 192.47 104.195 192.429 104.022C192.414 103.948 192.374 103.88 192.318 103.829C189.907 105.319 187.598 106.967 185.405 108.762C185.329 108.815 185.239 108.843 185.147 108.843C185.054 108.843 184.964 108.815 184.888 108.762C184.808 108.716 184.743 108.646 184.701 108.564C184.66 108.481 184.644 108.387 184.654 108.295C184.927 106.837 185.04 105.353 184.989 103.87C184.928 103.87 184.654 103.992 184.411 104.256C184.167 104.52 183.792 105.616 183.396 106.58C182.381 109.077 181.985 109.889 181.711 110.122C181.437 110.356 176.636 113.167 175.621 113.665C175.514 113.716 175.392 113.724 175.279 113.688C175.166 113.652 175.071 113.575 175.013 113.472C174.955 113.369 174.938 113.248 174.966 113.133C174.994 113.018 175.065 112.918 175.164 112.853C177.296 111.655 180.777 109.655 181.071 109.402C181.602 108.369 182.077 107.309 182.492 106.225C182.805 105.321 183.206 104.451 183.69 103.626C183.873 103.434 184.522 102.814 185.152 102.926C185.307 102.962 185.451 103.039 185.568 103.147C185.686 103.256 185.773 103.393 185.822 103.545C185.957 104.797 185.912 106.062 185.69 107.301C191.932 102.49 192.348 102.743 192.642 102.916C192.808 103.007 192.952 103.134 193.064 103.286C193.176 103.439 193.254 103.614 193.292 103.799C193.321 104.195 193.27 104.592 193.141 104.967C193.012 105.342 192.808 105.687 192.541 105.981C191.675 107.062 190.648 108.004 189.496 108.772C190.348 109.787 191.637 111.533 191.303 112.457C190.968 113.381 184.411 117.867 181.619 119.734C181.559 119.789 181.485 119.827 181.406 119.846Z" fill="#0F172A"/>
<path d="M127.348 107.661C127.348 107.661 117.493 104.433 91.5392 109.417C87.0326 110.279 84.962 152.3 88.3623 177.574L133.824 177.198C133.824 177.198 141.325 111.162 127.348 107.661Z" fill="#D54407"/>
<path d="M89.825 103.336C89.825 103.336 79.9897 134.801 79.3604 137.592C78.7311 140.383 72.0625 177.431 72.0625 177.431L82.3952 180.902C82.3952 180.902 97.3766 146.27 96.4225 136.547C95.4684 126.823 89.825 103.336 89.825 103.336Z" fill="#D54407"/>
<path d="M126.494 107.681C134.401 108.432 150.854 127.524 152.194 126.966C153.534 126.407 177.914 109.711 177.914 109.711L185.628 118.155C185.628 118.155 162.009 145.56 157.208 148.463C149.819 152.878 118.445 132.781 118.445 132.781C118.445 132.781 118.587 106.919 126.494 107.681Z" fill="#D54407"/>
<path d="M77.6146 187.734C77.6146 187.734 74.4174 185.998 75.8282 183.055L77.6146 187.734Z" fill="white"/>
<path d="M77.6155 188.2C77.5371 188.198 77.4603 188.177 77.3922 188.139C76.1539 187.469 74.1442 185.5 75.3622 182.851C75.416 182.739 75.512 182.653 75.6291 182.612C75.7462 182.571 75.8747 182.578 75.9864 182.632C76.0981 182.686 76.1839 182.782 76.2248 182.899C76.2657 183.016 76.2585 183.145 76.2047 183.257C74.9968 185.774 77.6764 187.317 77.788 187.317C77.8772 187.367 77.9472 187.446 77.9873 187.54C78.0273 187.634 78.0353 187.739 78.0099 187.838C77.9845 187.938 77.9272 188.026 77.8467 188.089C77.7663 188.153 77.6672 188.188 77.5647 188.189L77.6155 188.2Z" fill="#0F172A"/>
<path d="M150.5 149.063H150.408C145.445 148.048 135.731 142.303 123.003 132.823L122.425 132.386C122.324 132.318 122.253 132.213 122.228 132.094C122.204 131.974 122.227 131.85 122.293 131.747C122.357 131.648 122.458 131.577 122.574 131.551C122.689 131.524 122.81 131.544 122.912 131.605C123.136 131.753 123.353 131.912 123.562 132.082C136.148 141.491 145.729 147.216 150.561 148.17C150.682 148.194 150.788 148.266 150.856 148.368C150.925 148.471 150.95 148.597 150.926 148.718C150.899 148.812 150.844 148.896 150.767 148.958C150.691 149.019 150.598 149.056 150.5 149.063Z" fill="#0F172A"/>
<path d="M124.011 88.2412C123.351 88.2412 122.705 88.0454 122.156 87.6784C121.607 87.3115 121.179 86.79 120.926 86.1798C120.673 85.5696 120.607 84.8981 120.736 84.2504C120.865 83.6026 121.183 83.0076 121.65 82.5406C122.117 82.0736 122.712 81.7555 123.36 81.6267C124.008 81.4978 124.679 81.564 125.289 81.8167C125.899 82.0694 126.421 82.4975 126.788 83.0466C127.155 83.5958 127.351 84.2414 127.351 84.9019C127.351 85.7875 126.999 86.6369 126.373 87.2631C125.746 87.8894 124.897 88.2412 124.011 88.2412ZM124.011 82.5775C123.552 82.5775 123.102 82.7138 122.72 82.9692C122.338 83.2246 122.04 83.5876 121.864 84.0124C121.688 84.4371 121.642 84.9044 121.732 85.3553C121.821 85.8062 122.043 86.2204 122.368 86.5454C122.693 86.8705 123.107 87.0919 123.558 87.1815C124.009 87.2712 124.476 87.2252 124.901 87.0493C125.325 86.8733 125.688 86.5754 125.944 86.1932C126.199 85.811 126.336 85.3616 126.336 84.9019C126.336 84.5966 126.275 84.2944 126.159 84.0124C126.042 83.7304 125.871 83.4741 125.655 83.2583C125.439 83.0425 125.183 82.8712 124.901 82.7544C124.619 82.6376 124.316 82.5775 124.011 82.5775Z" fill="#0F172A"/>
<path d="M122.648 87.1094C122.648 87.1094 125.947 92.5498 125.186 93.6155C124.424 94.6813 122.039 93.8693 122.039 93.8693" fill="white"/>
<path d="M123.755 94.6239C123.113 94.6079 122.477 94.4985 121.867 94.2991C121.732 94.2547 121.621 94.1586 121.557 94.0321C121.493 93.9055 121.483 93.7587 121.527 93.6242C121.571 93.4896 121.667 93.3781 121.794 93.3143C121.921 93.2506 122.067 93.2397 122.202 93.2841C122.862 93.5176 124.354 93.7916 124.77 93.2232C125.034 92.736 123.846 89.9549 122.222 87.2753C122.187 87.2195 122.163 87.1572 122.152 87.0921C122.142 87.0271 122.144 86.9604 122.159 86.8962C122.174 86.832 122.202 86.7714 122.24 86.718C122.279 86.6646 122.328 86.6194 122.385 86.5851C122.441 86.5497 122.504 86.5258 122.57 86.5148C122.636 86.5037 122.703 86.5058 122.768 86.5209C122.834 86.536 122.895 86.5638 122.949 86.6027C123.004 86.6416 123.05 86.6908 123.085 86.7475C124.1 88.473 126.465 92.6041 125.592 93.8525C125.371 94.1204 125.089 94.3305 124.769 94.4649C124.449 94.5993 124.101 94.6538 123.755 94.6239Z" fill="#0F172A"/>
<path d="M122.174 80.0857C124.336 81.9838 123.544 85.8103 123.423 88.3072C123.26 91.8259 123.017 95.3412 122.692 98.8531C122.489 101.076 116.713 100.883 115.719 100.193L116.937 105.765L104.32 103.918L105.102 96.6505C105.102 96.6505 104.29 86.5005 106.726 82.0751C107.433 80.7927 108.484 79.7333 109.761 79.016C111.038 78.2987 112.49 77.9521 113.953 78.0151C113.953 78.0151 120.063 78.2181 122.174 80.0857Z" fill="white"/>
<path d="M116.937 106.267H116.866L104.25 104.419C104.12 104.399 104.004 104.33 103.924 104.226C103.845 104.122 103.809 103.991 103.824 103.861L104.595 96.5936C104.595 96.2688 103.803 86.3624 106.28 81.8253C107.027 80.4513 108.148 79.3169 109.513 78.5535C110.878 77.7901 112.432 77.4289 113.994 77.5116C114.227 77.5116 120.297 77.7349 122.51 79.6938C124.54 81.4498 124.235 84.5151 124.032 86.9815C124.032 87.4586 123.951 87.9153 123.931 88.3315C123.768 91.8434 123.525 95.4365 123.2 98.8875C123.154 99.2747 122.997 99.6405 122.749 99.9411C122.5 100.242 122.171 100.464 121.799 100.583C120.073 101.208 118.207 101.341 116.41 100.968L117.425 105.658C117.441 105.736 117.439 105.818 117.417 105.896C117.396 105.973 117.357 106.045 117.303 106.104C117.256 106.155 117.2 106.196 117.137 106.224C117.074 106.252 117.006 106.266 116.937 106.267ZM104.879 103.485L116.288 105.15L115.273 100.298C115.25 100.199 115.258 100.095 115.296 100.001C115.334 99.9066 115.401 99.8261 115.486 99.7705C115.571 99.7116 115.672 99.68 115.775 99.68C115.879 99.68 115.979 99.7116 116.064 99.7705C117.816 100.31 119.696 100.271 121.424 99.6589C121.931 99.4254 122.205 99.1311 122.236 98.786C122.56 95.3045 122.804 91.7723 122.966 88.2706C122.966 87.8443 123.027 87.3774 123.068 86.8902C123.261 84.647 123.494 81.8152 121.89 80.4449C119.942 78.7296 114.045 78.5164 113.994 78.5164C112.623 78.4461 111.261 78.7641 110.063 79.4339C108.866 80.1037 107.881 81.098 107.224 82.3024C104.889 86.5755 105.65 96.5124 105.661 96.5936L104.879 103.485Z" fill="#0F172A"/>
<path d="M101.844 105.628L103.031 101.781L118.52 103.273L119.403 106.805C116.571 107.917 113.527 108.387 110.492 108.184C107.456 107.98 104.503 107.107 101.844 105.628Z" fill="white"/>
<path d="M112.035 108.746C108.393 108.729 104.812 107.812 101.611 106.076C101.507 106.02 101.426 105.93 101.381 105.821C101.337 105.712 101.332 105.59 101.367 105.478L102.514 101.631C102.55 101.519 102.623 101.424 102.721 101.359C102.819 101.295 102.935 101.265 103.052 101.275L118.571 102.747C118.674 102.757 118.771 102.798 118.849 102.865C118.928 102.933 118.983 103.023 119.008 103.123L119.901 106.655C119.929 106.768 119.917 106.888 119.867 106.993C119.817 107.098 119.732 107.183 119.627 107.234C117.229 108.259 114.643 108.774 112.035 108.746ZM102.514 105.376C105.013 106.679 107.754 107.453 110.566 107.648C113.378 107.844 116.2 107.457 118.855 106.513L118.165 103.752L103.448 102.321L102.514 105.376Z" fill="#0F172A"/>
<path d="M109.421 97.5638C109.421 103.542 115.43 115.631 110.274 120.381C105.433 124.847 97.0791 126.014 90.8267 125.324C81.6917 124.309 76.8907 117.986 80.6767 109.084C82.5138 104.74 85.7517 101.157 88.4414 97.2796C90.8087 93.8656 92.7963 90.2034 94.369 86.3582C95.7088 83.1 96.7035 79.2532 98.5102 76.2082C102.509 69.4686 109.574 66.8296 117.004 69.0017C120.191 69.9355 126.321 73.7722 124.819 77.9235C124.454 78.9385 123.205 80.4712 122.21 80.0449C121.926 82.014 120.658 82.9579 119.115 84.2165C117.495 85.411 115.811 86.5156 114.07 87.5254C112.885 88.2305 111.851 89.1616 111.025 90.2659C110.122 91.7721 109.599 93.4757 109.503 95.2293C109.43 96.0052 109.403 96.7847 109.421 97.5638Z" fill="white"/>
<path d="M94.1887 126.013C93.0495 126.011 91.9111 125.95 90.7783 125.83C85.8454 125.302 82.1 123.231 80.202 120.024C78.3039 116.817 78.3953 113.112 80.202 108.859C81.6808 105.718 83.5385 102.769 85.7337 100.079C86.5051 99.0643 87.2765 98.0493 88.0175 96.9633C90.3608 93.5755 92.3312 89.9444 93.8943 86.1332C94.3308 85.0573 94.7266 83.951 95.1428 82.7736C95.9 80.4162 96.8788 78.1358 98.066 75.9629C99.8885 72.7034 102.788 70.1795 106.268 68.8239C109.748 67.4683 113.591 67.3655 117.138 68.5331C119.513 69.2233 123.522 71.5071 124.984 74.3897C125.295 74.9538 125.483 75.5775 125.535 76.2196C125.588 76.8617 125.504 77.5076 125.288 78.1147C124.92 79.125 124.199 79.9684 123.258 80.4898C123.052 80.5776 122.832 80.6291 122.609 80.6421C122.182 82.3879 120.995 83.3521 119.635 84.4585L119.422 84.631C118.365 85.4596 117.249 86.2093 116.082 86.8742C115.514 87.2193 114.945 87.5644 114.387 87.8892C113.251 88.5847 112.262 89.4948 111.474 90.5688C110.625 92.0078 110.134 93.6301 110.043 95.2987C109.959 96.0569 109.921 96.8196 109.931 97.5824C110.11 100.017 110.546 102.426 111.231 104.769C112.682 110.666 114.276 117.355 110.622 120.765C106.369 124.673 99.7103 126.013 94.1887 126.013ZM111.992 68.8072C109.324 68.8093 106.704 69.5235 104.405 70.876C102.105 72.2285 100.207 74.1702 98.9084 76.5009C97.7579 78.621 96.8065 80.8432 96.0664 83.139C95.6706 84.2758 95.2443 85.4938 94.7977 86.5088C93.2149 90.3911 91.21 94.0876 88.8193 97.5317C88.0784 98.5467 87.2968 99.6429 86.5051 100.678C84.3673 103.306 82.5542 106.183 81.1053 109.245C79.461 113.163 79.4509 116.705 81.1053 119.476C82.8308 122.409 86.3123 124.297 90.9102 124.795C96.6247 125.414 105.039 124.521 109.962 119.973C113.22 116.928 111.657 110.585 110.276 104.961C109.566 102.54 109.12 100.049 108.947 97.5317C108.935 96.7348 108.976 95.938 109.069 95.1464C109.159 93.3224 109.696 91.5485 110.632 89.9801C111.482 88.8216 112.555 87.8449 113.788 87.1076C114.357 86.7321 114.935 86.3768 115.514 86.0317C116.643 85.3849 117.725 84.6591 118.752 83.8596L118.965 83.6972C120.396 82.53 121.421 81.6672 121.675 80.0026C121.687 79.9266 121.717 79.8543 121.761 79.7913C121.805 79.7283 121.864 79.6763 121.931 79.6391C121.999 79.6019 122.074 79.5806 122.151 79.5768C122.228 79.5729 122.304 79.5867 122.375 79.6169C122.518 79.6756 122.679 79.6756 122.822 79.6169C123.507 79.2098 124.03 78.5788 124.304 77.8305C124.472 77.3533 124.537 76.8457 124.493 76.3415C124.449 75.8374 124.298 75.3484 124.05 74.9073C122.741 72.3191 118.975 70.1876 116.823 69.5684C115.257 69.0866 113.63 68.8302 111.992 68.8072Z" fill="#0F172A"/>
<path d="M122.712 96.2234C122.712 96.2234 119.92 97.7967 118.57 94.9141L122.712 96.2234Z" fill="white"/>
<path d="M121.025 97.1551C120.704 97.1577 120.386 97.1097 120.081 97.013C119.638 96.8581 119.233 96.6104 118.893 96.2866C118.554 95.9628 118.287 95.5703 118.111 95.1353C118.083 95.0746 118.066 95.0089 118.063 94.9419C118.06 94.8749 118.07 94.8079 118.092 94.7448C118.115 94.6816 118.15 94.6236 118.195 94.5739C118.24 94.5242 118.294 94.4839 118.355 94.4552C118.416 94.4266 118.481 94.4101 118.548 94.4069C118.615 94.4036 118.682 94.4136 118.746 94.4362C118.809 94.4588 118.867 94.4936 118.916 94.5387C118.966 94.5838 119.006 94.6382 119.035 94.6988C119.151 95.0053 119.33 95.2838 119.561 95.5164C119.792 95.749 120.069 95.9304 120.375 96.0488C121.079 96.2124 121.818 96.115 122.456 95.7747C122.514 95.7426 122.579 95.7223 122.645 95.7151C122.712 95.7079 122.779 95.7139 122.843 95.7328C122.907 95.7516 122.967 95.783 123.019 95.825C123.071 95.8671 123.114 95.919 123.146 95.9777C123.18 96.0346 123.201 96.0978 123.21 96.1633C123.218 96.2289 123.214 96.2955 123.196 96.3592C123.177 96.4228 123.147 96.4821 123.105 96.5334C123.063 96.5848 123.012 96.6271 122.953 96.6578C122.359 96.9753 121.698 97.1459 121.025 97.1551Z" fill="#0F172A"/>
<path d="M108.145 89.1865C108.101 89.1961 108.056 89.1961 108.013 89.1865C107.884 89.1508 107.774 89.0658 107.708 88.9499C107.641 88.834 107.623 88.6965 107.658 88.5673C108.206 86.6693 108.612 86.6388 108.855 86.6185C109.099 86.5982 120.731 85.167 126.78 84.4261C126.913 84.4088 127.048 84.445 127.155 84.5269C127.261 84.6087 127.331 84.7294 127.349 84.8625C127.363 84.9968 127.324 85.1314 127.241 85.2376C127.157 85.3438 127.036 85.4132 126.902 85.431C125.197 85.6441 110.865 87.4609 109.099 87.6132C108.904 88.0055 108.751 88.4171 108.642 88.8414C108.606 88.9438 108.538 89.0322 108.449 89.0942C108.36 89.1561 108.253 89.1884 108.145 89.1865Z" fill="#0F172A"/>
<path d="M115.818 89.1071C115.751 88.2218 115.442 87.372 114.924 86.6508C114.601 86.0459 114.191 85.4918 113.706 85.0065C113.462 84.767 113.168 84.5845 112.845 84.4722C112.523 84.3599 112.179 84.3205 111.839 84.3569C111.543 84.4167 111.262 84.5379 111.016 84.7127C110.769 84.8875 110.562 85.1121 110.408 85.3719C110.117 85.9043 109.944 86.4926 109.9 87.0974C109.792 88.4205 110.033 89.7487 110.6 90.9492C111.166 92.1498 112.038 93.1806 113.128 93.9385L112.945 93.7152" fill="white"/>
<path d="M113.133 94.4647C113.032 94.4628 112.933 94.4311 112.849 94.3734C111.689 93.5623 110.762 92.4622 110.158 91.182C109.555 89.9019 109.296 88.4863 109.408 87.0755C109.45 86.3903 109.648 85.7236 109.987 85.1267C110.172 84.8002 110.426 84.5177 110.731 84.2987C111.036 84.0797 111.384 83.9293 111.753 83.858C112.17 83.8053 112.594 83.8473 112.993 83.9809C113.392 84.1144 113.756 84.3361 114.057 84.6294C114.58 85.1487 115.022 85.7441 115.366 86.3955C115.952 87.1895 116.304 88.1319 116.381 89.1157C116.372 89.2478 116.313 89.3715 116.218 89.4633C116.122 89.5551 115.996 89.6084 115.864 89.613C115.797 89.6117 115.731 89.5973 115.67 89.5705C115.609 89.5438 115.554 89.5053 115.508 89.4572C115.462 89.4092 115.425 89.3525 115.401 89.2904C115.377 89.2283 115.365 89.162 115.366 89.0954C115.297 88.3065 115.013 87.5518 114.544 86.9131C114.249 86.3507 113.872 85.8344 113.428 85.3805C113.238 85.193 113.01 85.0487 112.76 84.9576C112.509 84.8665 112.242 84.8307 111.976 84.8527C111.751 84.9038 111.539 85.0015 111.353 85.1396C111.168 85.2777 111.014 85.4531 110.9 85.6545C110.644 86.1197 110.495 86.6365 110.464 87.1669C110.37 88.3167 110.558 89.472 111.01 90.533C111.463 91.5941 112.167 92.529 113.062 93.2569C113.125 93.2621 113.187 93.2802 113.242 93.3098C113.298 93.3395 113.348 93.3802 113.387 93.4294L113.57 93.6426C113.651 93.7352 113.696 93.8542 113.696 93.9775C113.696 94.1008 113.651 94.2199 113.57 94.3125C113.513 94.3693 113.445 94.4125 113.369 94.4389C113.294 94.4653 113.213 94.4741 113.133 94.4647Z" fill="#0F172A"/>
<path d="M121.748 85.5872C122.022 85.5829 122.236 85.016 122.225 84.3209C122.214 83.6259 121.983 83.066 121.708 83.0703C121.434 83.0746 121.22 83.6415 121.231 84.3366C121.242 85.0316 121.473 85.5915 121.748 85.5872Z" fill="#0F172A"/>
<path d="M87.6413 171.511C87.5246 171.514 87.4114 171.471 87.326 171.391C87.2406 171.311 87.1899 171.201 87.1846 171.085C86.3015 159.219 88.0676 127.44 88.0879 127.125C88.0905 127.064 88.1052 127.004 88.1313 126.949C88.1573 126.894 88.1941 126.845 88.2395 126.804C88.2849 126.763 88.338 126.732 88.3957 126.712C88.4533 126.693 88.5143 126.684 88.5751 126.689C88.6981 126.699 88.8122 126.757 88.8936 126.849C88.975 126.942 89.0173 127.063 89.0116 127.186C89.0116 127.501 87.2252 159.209 88.1082 171.014C88.1167 171.136 88.0767 171.257 87.9969 171.35C87.9172 171.443 87.804 171.501 87.6819 171.511H87.6413Z" fill="#0F172A"/>
<path d="M91.9139 172.517C91.8032 172.501 91.702 172.445 91.6289 172.36C91.5558 172.275 91.5156 172.167 91.5156 172.055C91.5156 171.943 91.5558 171.835 91.6289 171.75C91.702 171.666 91.8032 171.61 91.9139 171.594L132.514 169.564C132.576 169.559 132.637 169.568 132.696 169.588C132.754 169.609 132.808 169.641 132.853 169.683C132.899 169.724 132.935 169.775 132.961 169.831C132.986 169.887 133 169.948 133.001 170.01C133.004 170.133 132.959 170.253 132.876 170.344C132.793 170.434 132.677 170.489 132.554 170.497L91.9545 172.527L91.9139 172.517Z" fill="#0F172A"/>
<path d="M86.6165 26.1664C86.9923 25.4577 88.0077 25.4577 88.3835 26.1664L89.6083 28.4766C89.702 28.6534 89.8466 28.798 90.0234 28.8917L92.3336 30.1165C93.0423 30.4923 93.0423 31.5077 92.3336 31.8835L90.0234 33.1083C89.8466 33.202 89.702 33.3466 89.6083 33.5234L88.3835 35.8336C88.0077 36.5423 86.9923 36.5423 86.6165 35.8336L85.3917 33.5234C85.298 33.3466 85.1534 33.202 84.9766 33.1083L82.6664 31.8835C81.9577 31.5077 81.9577 30.4923 82.6664 30.1165L84.9766 28.8917C85.1534 28.798 85.298 28.6534 85.3917 28.4766L86.6165 26.1664Z" fill="#CBD5E1"/>
<path fill-rule="evenodd" clip-rule="evenodd" d="M280.979 152.402C286.502 152.402 290.536 147.947 289.99 142.451C289.443 136.955 284.523 132.5 279 132.5C273.477 132.5 269.443 136.955 269.99 142.451C270.536 147.947 275.457 152.402 280.979 152.402ZM279.538 137.475C278.735 137.475 277.669 137.932 277.157 138.496L275.768 140.027H283.454L285.77 137.475H279.538ZM282.809 146.406C282.297 146.969 281.232 147.426 280.429 147.426H274.196L276.513 144.875H284.199L282.809 146.406ZM284.8 141.303H274.612L274.179 141.781C273.141 142.802 273.558 143.599 275.154 143.599H285.369L285.802 143.121C286.83 142.106 286.395 141.303 284.8 141.303Z" fill="#0F172A"/>
<defs>
<clipPath id="clip0_4370_30523">
<rect width="116" height="160" fill="white" transform="translate(145 40.5)"/>
</clipPath>
</defs>
</svg>
