<svg width="364" height="366" viewBox="0 0 364 366" fill="none" xmlns="http://www.w3.org/2000/svg">
<path fill-rule="evenodd" clip-rule="evenodd" d="M182 169.25C182.69 169.25 183.25 169.81 183.25 170.5V181.75H194.5C195.19 181.75 195.75 182.31 195.75 183C195.75 183.69 195.19 184.25 194.5 184.25H183.25V195.5C183.25 196.19 182.69 196.75 182 196.75C181.31 196.75 180.75 196.19 180.75 195.5V184.25H169.5C168.81 184.25 168.25 183.69 168.25 183C168.25 182.31 168.81 181.75 169.5 181.75H180.75V170.5C180.75 169.81 181.31 169.25 182 169.25Z" fill="#555D66"/>
</svg>
